# xmcd CD database file
#
# Track frame offsets:
#	150
#	13083
#	25283
#	36694
#	52186
#	60552
#	73185
#	89398
#	107617
#	121635
#	134889
#	151217
#	174209
#	188392
#	205018
#	218523
#	232144
#	244991
#	261492
#	277436
#	288469
#	300037
#	311873
#
# Disc length: 4367 seconds
#
# Revision: 1
# Processed by: cddbd v1.4PL0 Copyright (c) Steve Scherf et al.
# Submitted via: CDex 1.40Beta4
#
DISCID=5a110d17
DTITLE=Frank Sinatra - Complete Reprise - Disc 15
DYEAR=1900
DGENRE=Blues
TTITLE0=I Would Be in Love (Anyway)
TTITLE1=The Train
TTITLE2=She Says
TTITLE3=Lady Day
TTITLE4=Watertown
TTITLE5=What's Now Is Now
TTITLE6=Goodbye (She Quietly Says)
TTITLE7=What a Funny Girl (You Used to Be)
TTITLE8=Elizabeth
TTITLE9=Michael and Peter
TTITLE10=For a While
TTITLE11=Lady Day
TTITLE12=I Will Drink the Wine
TTITLE13=Bein' Green
TTITLE14=My Sweet Lady
TTITLE15=Sunrise In the Morning
TTITLE16=I'm Not Afraid
TTITLE17=Something
TTITLE18=Leaviang on a Jet Plane
TTITLE19=Close to You
TTITLE20=Feelin' Kinda Sunday
TTITLE21=Life'a Trippy Thing
TTITLE22=The Game Is Over
EXTD=ID3G:   0
EXTT0=
EXTT1=
EXTT2=
EXTT3=
EXTT4=
EXTT5=
EXTT6=
EXTT7=
EXTT8=
EXTT9=
EXTT10=
EXTT11=
EXTT12=
EXTT13=
EXTT14=
EXTT15=
EXTT16=
EXTT17=
EXTT18=
EXTT19=
EXTT20=
EXTT21=
EXTT22=
PLAYORDER=
